<svg width="120" height="102" viewBox="0 0 120 102" fill="none" xmlns="http://www.w3.org/2000/svg">
<path d="M0 67H15V70H0V67Z" fill="#C4C4C4"/>
<path d="M0 73H15V76H0V73Z" fill="#C4C4C4"/>
<path d="M0 79H15V82H0V79Z" fill="#C4C4C4"/>
<path d="M35 67H41V73H35V67Z" fill="#C4C4C4"/>
<path d="M35 76H41V82H35V76Z" fill="#C4C4C4"/>
<path d="M44 67H50V73H44V67Z" fill="#C4C4C4"/>
<path d="M44 76H50V82H44V76Z" fill="#C4C4C4"/>
<path d="M70 67H73V70H70V67Z" fill="#C4C4C4"/>
<path d="M70 73H73V76H70V73Z" fill="#C4C4C4"/>
<path d="M70 79H73V82H70V79Z" fill="#C4C4C4"/>
<path d="M76 67H79V70H76V67Z" fill="#C4C4C4"/>
<path d="M76 73H79V76H76V73Z" fill="#C4C4C4"/>
<path d="M76 79H79V82H76V79Z" fill="#C4C4C4"/>
<path d="M82 67H85V70H82V67Z" fill="#C4C4C4"/>
<path d="M82 73H85V76H82V73Z" fill="#C4C4C4"/>
<path d="M82 79H85V82H82V79Z" fill="#C4C4C4"/>
<path d="M105 67H107V69H105V67Z" fill="#C4C4C4"/>
<path d="M105 71H107V73H105V71Z" fill="#C4C4C4"/>
<path d="M105 75H107V77H105V75Z" fill="#C4C4C4"/>
<path d="M105 79H107V81H105V79Z" fill="#C4C4C4"/>
<path d="M109 67H111V69H109V67Z" fill="#C4C4C4"/>
<path d="M109 71H111V73H109V71Z" fill="#C4C4C4"/>
<path d="M109 75H111V77H109V75Z" fill="#C4C4C4"/>
<path d="M109 79H111V81H109V79Z" fill="#C4C4C4"/>
<path d="M113 67H115V69H113V67Z" fill="#C4C4C4"/>
<path d="M113 71H115V73H113V71Z" fill="#C4C4C4"/>
<path d="M113 75H115V77H113V75Z" fill="#C4C4C4"/>
<path d="M113 79H115V81H113V79Z" fill="#C4C4C4"/>
<path d="M117 67H119V69H117V67Z" fill="#C4C4C4"/>
<path d="M117 71H119V73H117V71Z" fill="#C4C4C4"/>
<path d="M117 75H119V77H117V75Z" fill="#C4C4C4"/>
<path d="M117 79H119V81H117V79Z" fill="#C4C4C4"/>
<path d="M0 87H15V90H0V87Z" fill="black"/>
<path d="M0 93H15V96H0V93Z" fill="black"/>
<path d="M0 99H15V102H0V99Z" fill="black"/>
<path d="M35 87H41V93H35V87Z" fill="black"/>
<path d="M35 96H41V102H35V96Z" fill="black"/>
<path d="M44 87H50V93H44V87Z" fill="black"/>
<path d="M44 96H50V102H44V96Z" fill="black"/>
<path d="M70 87H73V90H70V87Z" fill="black"/>
<path d="M70 93H73V96H70V93Z" fill="black"/>
<path d="M70 99H73V102H70V99Z" fill="black"/>
<path d="M76 87H79V90H76V87Z" fill="black"/>
<path d="M76 93H79V96H76V93Z" fill="black"/>
<path d="M76 99H79V102H76V99Z" fill="black"/>
<path d="M82 87H85V90H82V87Z" fill="black"/>
<path d="M82 93H85V96H82V93Z" fill="black"/>
<path d="M82 99H85V102H82V99Z" fill="black"/>
<path d="M105 87H107V89H105V87Z" fill="black"/>
<path d="M105 91H107V93H105V91Z" fill="black"/>
<path d="M105 95H107V97H105V95Z" fill="black"/>
<path d="M105 99H107V101H105V99Z" fill="black"/>
<path d="M109 87H111V89H109V87Z" fill="black"/>
<path d="M109 91H111V93H109V91Z" fill="black"/>
<path d="M109 95H111V97H109V95Z" fill="black"/>
<path d="M109 99H111V101H109V99Z" fill="black"/>
<path d="M113 87H115V89H113V87Z" fill="black"/>
<path d="M113 91H115V93H113V91Z" fill="black"/>
<path d="M113 95H115V97H113V95Z" fill="black"/>
<path d="M113 99H115V101H113V99Z" fill="black"/>
<path d="M117 87H119V89H117V87Z" fill="black"/>
<path d="M117 91H119V93H117V91Z" fill="black"/>
<path d="M117 95H119V97H117V95Z" fill="black"/>
<path d="M117 99H119V101H117V99Z" fill="black"/>
<path d="M58 0C48.0742 0 40 8.07497 40 18C40 27.925 48.0742 36 58 36C67.9258 36 76 27.925 76 18C76 8.07497 67.9258 0 58 0ZM58 34.5C48.9018 34.5 41.5 27.0982 41.5 18C41.5 8.90184 48.9018 1.49998 58 1.49998C67.0982 1.49998 74.5 8.90184 74.5 18C74.5 27.0982 67.0982 34.5 58 34.5Z" fill="black"/>
<path d="M65.1558 17.3694L54.6558 10.6194C54.4258 10.4693 54.1285 10.4612 53.8911 10.5916C53.6494 10.7234 53.5 10.9754 53.5 11.25V24.75C53.5 25.0247 53.6494 25.2767 53.8911 25.4085C54.0025 25.4693 54.127 25.5001 54.25 25.5001C54.3906 25.5001 54.5328 25.4605 54.6558 25.3807L65.1558 18.6307C65.3697 18.493 65.5 18.2549 65.5 18C65.5 17.7452 65.3697 17.5072 65.1558 17.3694ZM55 23.376V12.6241L63.3628 18L55 23.376Z" fill="black"/>
<g clip-path="url(#clip0)">
<path d="M7.45204 30.6668C6.75053 30.1022 6.09114 29.4748 5.49194 28.8021C5.23199 28.5105 4.78544 28.485 4.49448 28.7444C4.20297 29.0039 4.1773 29.4505 4.43669 29.7418C5.08764 30.4727 5.80412 31.1542 6.5661 31.7675C6.69667 31.8725 6.85311 31.9236 7.0085 31.9236C7.21515 31.9236 7.4199 31.8334 7.5594 31.6601C7.80409 31.3561 7.75593 30.9114 7.45204 30.6668Z" fill="black"/>
<path d="M12.1544 33.3035C11.3075 33.0004 10.4792 32.6231 9.69286 32.1819C9.3524 31.9911 8.92202 32.1124 8.73112 32.4525C8.54015 32.7928 8.6613 33.2234 9.00154 33.4144C9.85668 33.894 10.757 34.3043 11.6779 34.634C11.7567 34.6621 11.8371 34.6755 11.9161 34.6755C12.2061 34.6755 12.4779 34.4956 12.5812 34.2069C12.7128 33.8395 12.5215 33.4351 12.1544 33.3035Z" fill="black"/>
<path d="M3.86681 26.6405C3.38714 25.8779 2.96871 25.0705 2.6232 24.2407C2.47329 23.8807 2.0595 23.7102 1.69957 23.8601C1.33929 24.01 1.16885 24.4236 1.3189 24.7839C1.69437 25.6861 2.14922 26.5638 2.6708 27.3928C2.80503 27.6063 3.0346 27.7232 3.26944 27.7232C3.3979 27.7232 3.52819 27.6882 3.64491 27.6147C3.97531 27.4069 4.07466 26.9708 3.86681 26.6405Z" fill="black"/>
<path d="M1.4862 12.7573C1.11017 12.6526 0.720566 12.8723 0.615871 13.2481C0.353676 14.1891 0.168613 15.1611 0.0661678 16.1371C0.0254569 16.5251 0.307129 16.8727 0.695043 16.9134C0.720215 16.9161 0.745035 16.9174 0.769715 16.9174C1.12676 16.9174 1.43339 16.6475 1.4715 16.2846C1.56565 15.3869 1.73574 14.493 1.97705 13.6276C2.08182 13.2517 1.86202 12.8621 1.4862 12.7573Z" fill="black"/>
<path d="M1.79737 21.6667C1.59571 20.792 1.46605 19.8916 1.41184 18.9904C1.38836 18.6009 1.0555 18.3052 0.664139 18.3276C0.274678 18.3511 -0.0221817 18.6858 0.00130267 19.0752C0.0602949 20.0546 0.201412 21.0332 0.420576 21.9841C0.49581 22.311 0.786623 22.5321 1.1083 22.5321C1.1609 22.5321 1.2144 22.5261 1.26763 22.5139C1.64781 22.4262 1.88497 22.047 1.79737 21.6667Z" fill="black"/>
<path d="M32.1891 26.7265C31.8632 26.5117 31.4252 26.6021 31.2104 26.9279C30.7156 27.6792 30.1535 28.3951 29.54 29.0558C29.2743 29.3417 29.2909 29.7887 29.5769 30.0542C29.7128 30.1805 29.8853 30.243 30.0574 30.243C30.2469 30.243 30.436 30.1672 30.5752 30.0173C31.2418 29.2995 31.8525 28.5216 32.3905 27.705C32.6052 27.3793 32.5149 26.9411 32.1891 26.7265Z" fill="black"/>
<path d="M17.4598 34.2487C16.556 34.2394 15.6499 34.155 14.7668 33.9981C14.3813 33.9293 14.0158 34.1858 13.9475 34.5701C13.8793 34.9543 14.1353 35.3211 14.5195 35.3894C15.4792 35.5599 16.4635 35.6515 17.4452 35.6617C17.4476 35.6617 17.4501 35.6617 17.4526 35.6617C17.8393 35.6617 18.155 35.3502 18.1589 34.9626C18.163 34.5723 17.85 34.2527 17.4598 34.2487Z" fill="black"/>
<path d="M28.532 31.0074C28.2936 30.6983 27.8503 30.6408 27.5413 30.8791C26.8274 31.4292 26.0631 31.9228 25.2692 32.3465C24.9251 32.5302 24.7949 32.9583 24.9786 33.3024C25.1059 33.5407 25.3501 33.6765 25.6026 33.6765C25.7148 33.6765 25.8286 33.6496 25.9346 33.5931C26.7974 33.1327 27.628 32.5961 28.4037 31.9984C28.7128 31.7601 28.7702 31.3165 28.532 31.0074Z" fill="black"/>
<path d="M23.68 33.8612C23.5563 33.4912 23.1551 33.2918 22.786 33.4152C21.9331 33.7002 21.0492 33.9152 20.1586 34.0543C19.7731 34.1144 19.5094 34.4757 19.5696 34.8613C19.6241 35.2099 19.9245 35.4589 20.2667 35.4589C20.303 35.4589 20.3397 35.4561 20.3766 35.4504C21.3449 35.2992 22.3064 35.0653 23.2338 34.7553C23.604 34.6316 23.8037 34.2313 23.68 33.8612Z" fill="black"/>
<path d="M35.4763 6.77064C35.0994 6.66981 34.7121 6.89326 34.6111 7.27021L33.7009 10.6669C30.8549 4.42501 24.6012 0.338379 17.6314 0.338379C11.0847 0.338379 5.106 3.93184 2.02877 9.71659C1.84539 10.0611 1.97618 10.4888 2.32064 10.6721C2.66559 10.8555 3.09316 10.7246 3.27618 10.3801C6.1076 5.05768 11.6082 1.75131 17.6315 1.75131C24.2719 1.75131 30.206 5.78289 32.683 11.8733L28.5544 10.767C28.1775 10.6657 27.7901 10.8896 27.6892 11.2666C27.5881 11.6434 27.8118 12.0308 28.1887 12.1318L33.6479 13.5946C33.7091 13.611 33.7707 13.6189 33.8313 13.6189C34.1431 13.6189 34.4286 13.4107 34.5131 13.095L35.9759 7.63583C36.0769 7.25896 35.8532 6.8716 35.4763 6.77064Z" fill="black"/>
</g>
<path d="M10.8503 23.3431C9.87745 23.3431 8.97934 22.7752 8.56239 21.8957C8.42894 21.615 8.54868 21.2793 8.82937 21.1464C9.11118 21.0135 9.44573 21.1332 9.57862 21.4134C9.81044 21.9023 10.3097 22.2181 10.8503 22.2181C11.6259 22.2181 12.2565 21.5875 12.2565 20.8119C12.2565 20.0363 11.6259 19.4056 10.8503 19.4056C10.5394 19.4056 10.2878 19.1541 10.2878 18.8431C10.2878 18.5322 10.5394 18.2806 10.8503 18.2806C12.2461 18.2806 13.3815 19.416 13.3815 20.8119C13.3815 22.2077 12.2461 23.3431 10.8503 23.3431Z" fill="black"/>
<path d="M22.1003 23.3431C20.7045 23.3431 19.5691 22.2077 19.5691 20.8119V18.8431C19.5691 18.5322 19.8207 18.2806 20.1316 18.2806C20.4425 18.2806 20.6941 18.5322 20.6941 18.8431V20.8119C20.6941 21.5875 21.3247 22.2181 22.1003 22.2181C22.876 22.2181 23.5066 21.5875 23.5066 20.8119V18.8431C23.5066 18.5322 23.7582 18.2806 24.0691 18.2806C24.38 18.2806 24.6316 18.5322 24.6316 18.8431V20.8119C24.6316 22.2077 23.4962 23.3431 22.1003 23.3431Z" fill="black"/>
<path d="M16.4753 18.2806C15.9447 18.2806 15.4529 18.4462 15.0455 18.7263C14.9903 18.4735 14.776 18.2806 14.5066 18.2806C14.1957 18.2806 13.9441 18.5322 13.9441 18.8431V20.8119C13.9441 22.2077 15.0795 23.3431 16.4753 23.3431C17.8712 23.3431 19.0066 22.2077 19.0066 20.8119C19.0066 19.416 17.8712 18.2806 16.4753 18.2806ZM16.4753 22.2181C15.6997 22.2181 15.0691 21.5875 15.0691 20.8119C15.0691 20.0363 15.6997 19.4056 16.4753 19.4056C17.251 19.4056 17.8816 20.0363 17.8816 20.8119C17.8816 21.5875 17.251 22.2181 16.4753 22.2181Z" fill="black"/>
<path d="M22.1003 23.3438C20.7045 23.3438 19.5691 22.2083 19.5691 20.8125V18C19.5691 16.6042 20.7045 15.4688 22.1003 15.4688C23.4962 15.4688 24.6316 16.6042 24.6316 18V20.8125C24.6316 22.2083 23.4962 23.3438 22.1003 23.3438ZM22.1003 16.5938C21.3247 16.5938 20.6941 17.2244 20.6941 18V20.8125C20.6941 21.5881 21.3247 22.2188 22.1003 22.2188C22.876 22.2188 23.5066 21.5881 23.5066 20.8125V18C23.5066 17.2244 22.876 16.5938 22.1003 16.5938Z" fill="black"/>
<path d="M16.4753 18.2812C15.9552 18.2812 15.4717 18.4397 15.0691 18.7097V18C15.0691 17.2244 15.6997 16.5938 16.4753 16.5938C16.8461 16.5938 17.196 16.7366 17.4603 16.9964C17.6822 17.214 18.0382 17.2112 18.2557 16.9898C18.4738 16.7685 18.4705 16.4119 18.2491 16.1944C17.7729 15.7264 17.1433 15.4688 16.4753 15.4688C15.0795 15.4688 13.9441 16.6042 13.9441 18V20.8125C13.9441 22.2083 15.0795 23.3438 16.4753 23.3438C17.8712 23.3438 19.0066 22.2083 19.0066 20.8125C19.0066 19.4167 17.8712 18.2812 16.4753 18.2812ZM16.4753 22.2188C15.6997 22.2188 15.0691 21.5881 15.0691 20.8125C15.0691 20.0369 15.6997 19.4062 16.4753 19.4062C17.251 19.4062 17.8816 20.0369 17.8816 20.8125C17.8816 21.5881 17.251 22.2188 16.4753 22.2188Z" fill="black"/>
<path d="M10.8504 19.4072C10.5395 19.4072 10.2879 19.1556 10.2879 18.8447C10.2879 18.5337 10.5395 18.2822 10.8504 18.2822C11.3156 18.2822 11.6941 17.9037 11.6941 17.4384C11.6941 16.9731 11.3156 16.5947 10.8504 16.5947C10.6658 16.5947 10.4912 16.6529 10.345 16.7628C10.0961 16.9506 9.74401 16.8995 9.55726 16.6518C9.37051 16.4035 9.41994 16.0509 9.66822 15.8641C10.011 15.6059 10.4197 15.4697 10.8504 15.4697C11.9359 15.4697 12.8191 16.3531 12.8191 17.4385C12.8191 18.5239 11.9359 19.4072 10.8504 19.4072Z" fill="black"/>
<path d="M25.7566 15.5312C25.1022 15.5312 24.5691 14.9981 24.5691 14.3438C24.5691 13.6894 25.1022 13.1562 25.7566 13.1562C26.411 13.1562 26.9441 13.6894 26.9441 14.3438C26.9441 14.9981 26.411 15.5312 25.7566 15.5312ZM25.7566 13.2812C25.1701 13.2812 24.6941 13.7572 24.6941 14.3438C24.6941 14.9303 25.1701 15.4062 25.7566 15.4062C26.3431 15.4062 26.8191 14.9303 26.8191 14.3438C26.8191 13.7572 26.3431 13.2812 25.7566 13.2812Z" fill="black" stroke="black"/>
<path fill-rule="evenodd" clip-rule="evenodd" d="M10.0153 51.6647L7.35057 49L6 50.3506L10.0153 54.3659L14.0306 50.3506L12.68 49L10.0153 51.6647Z" fill="#808080"/>
<path fill-rule="evenodd" clip-rule="evenodd" d="M35 43.0016L28.556 50.4346L25 46.3185L26.3609 44.7542L28.5584 47.2979L33.6415 41.4346L35 43.0016Z" fill="white"/>
<defs>
<clipPath id="clip0">
<rect width="36" height="36" fill="white"/>
</clipPath>
</defs>
</svg>
